<?xml version="1.0" standalone="no"?>
<!DOCTYPE svg PUBLIC "-//W3C//DTD SVG 20010904//EN"
 "http://www.w3.org/TR/2001/REC-SVG-20010904/DTD/svg10.dtd">
<svg version="1.0" xmlns="http://www.w3.org/2000/svg"
 width="499.000000pt" height="499.000000pt" viewBox="0 0 499.000000 499.000000"
 preserveAspectRatio="xMidYMid meet">

<g transform="translate(0.000000,499.000000) scale(0.100000,-0.100000)"
fill="#000000" stroke="none">
<path d="M2115 3751 c-7 -8 -53 -20 -101 -27 -61 -9 -93 -19 -108 -33 -12 -12
-27 -21 -33 -21 -6 0 -33 -17 -60 -38 -26 -20 -61 -46 -76 -56 -60 -37 -84
-151 -34 -158 16 -2 22 -10 22 -28 0 -14 5 -34 11 -45 6 -11 14 -33 18 -50 7
-26 9 -28 18 -12 5 10 29 27 51 38 60 29 108 56 120 68 6 6 19 11 29 11 10 0
18 5 18 10 0 6 8 10 18 10 9 1 26 15 37 33 11 17 36 42 55 55 31 21 42 23 100
17 129 -14 192 -76 160 -159 -13 -35 -7 -47 46 -80 25 -16 50 -41 56 -55 8
-21 16 -136 19 -265 0 -11 -6 -23 -13 -27 -9 -6 -12 -29 -10 -79 2 -59 0 -70
-13 -70 -15 0 -15 -2 -2 -15 18 -18 11 -56 -9 -48 -8 3 -14 -1 -14 -9 0 -10
-9 -13 -29 -10 -25 3 -30 0 -36 -26 -7 -35 -35 -52 -35 -22 0 32 -33 28 -68
-9 -27 -29 -35 -32 -42 -21 -8 12 -10 10 -10 -7 0 -13 -4 -23 -10 -23 -5 0
-10 5 -10 10 0 19 -27 10 -39 -14 -21 -38 -174 -116 -187 -95 -3 5 -10 7 -15
4 -5 -4 -12 1 -15 10 -5 13 -9 14 -15 4 -4 -7 -3 -19 3 -26 17 -21 -20 -16
-52 7 -17 12 -30 33 -34 54 -4 23 -17 43 -37 57 l-31 22 7 -47 c5 -31 4 -46
-4 -46 -6 0 -8 -7 -4 -16 5 -13 7 -13 14 -2 14 21 10 0 -3 -24 -23 -41 -34
-46 -99 -49 -63 -4 -64 -4 -67 24 -2 16 -9 27 -19 27 -12 0 -13 -3 -4 -13 6
-8 8 -17 4 -20 -11 -12 -23 -8 -23 8 0 16 -30 20 -46 6 -15 -15 -74 -24 -74
-12 0 6 -7 11 -16 11 -8 0 -13 4 -10 8 3 5 0 26 -6 46 -10 31 -13 34 -19 20
-6 -17 -8 -16 -19 9 -14 30 -37 36 -47 12 -7 -20 16 -105 29 -105 5 0 6 -9 3
-20 -4 -11 -2 -20 4 -20 24 0 9 -19 -23 -30 -19 -6 -39 -17 -45 -24 -7 -8 -37
-17 -68 -21 -31 -4 -68 -12 -82 -17 -14 -6 -45 -12 -69 -13 -24 -1 -48 -7 -54
-13 -12 -12 -97 -5 -112 9 -6 5 -14 9 -19 9 -5 0 16 -28 47 -62 31 -34 56 -65
56 -69 0 -9 53 -39 69 -39 5 0 11 9 13 21 2 17 32 32 161 80 87 32 165 59 173
59 9 0 28 6 42 14 125 68 225 90 376 84 123 -4 142 -14 194 -99 21 -32 43 -59
50 -59 6 0 12 -5 12 -11 0 -20 41 -69 58 -69 13 0 11 4 -6 16 -15 10 -22 24
-20 37 2 18 9 21 37 19 20 -2 37 2 42 10 7 11 12 11 31 -1 13 -7 20 -10 16 -6
-9 10 11 29 58 54 55 29 153 138 158 176 3 16 8 59 11 95 7 74 32 160 46 160
6 0 7 5 3 11 -3 6 -1 22 7 35 10 19 10 27 0 37 -9 9 -13 7 -17 -11 -4 -12 -11
-22 -16 -22 -5 0 -7 4 -3 9 3 5 1 13 -5 16 -13 8 -5 84 10 99 5 5 10 19 10 31
0 39 28 100 47 104 10 2 30 12 45 22 31 23 57 24 84 4 25 -19 34 -19 34 0 0 9
7 27 16 40 12 19 15 36 9 71 -4 32 -3 44 4 39 6 -3 11 1 11 9 0 8 -9 18 -21
21 -33 11 -18 62 31 105 45 39 52 67 18 72 -16 2 -30 18 -45 47 -13 25 -28 48
-34 51 -7 5 -5 13 7 24 13 14 15 22 6 42 -9 19 -19 24 -47 24 -32 0 -36 3 -30
20 5 15 -2 24 -27 40 -36 22 -53 26 -43 10 3 -5 2 -10 -3 -10 -6 0 -12 6 -15
14 -3 8 -26 22 -51 31 -25 10 -43 21 -40 26 3 5 -2 6 -10 3 -8 -3 -21 -2 -28
2 -7 5 -75 9 -151 9 -105 0 -141 -3 -152 -14z m535 -196 c0 -8 -4 -15 -9 -15
-13 0 -22 16 -14 24 11 11 23 6 23 -9z m-249 -898 c-10 -9 -11 -8 -5 6 3 10 9
15 12 12 3 -3 0 -11 -7 -18z"/>
<path d="M2105 3313 c-59 -8 -133 -33 -138 -47 -3 -8 3 -26 14 -39 21 -28 25
-53 7 -59 -19 -7 -19 -47 0 -56 25 -14 179 -15 187 -3 3 6 -1 11 -9 11 -8 0
-17 4 -21 9 -3 6 25 13 65 17 50 5 70 11 70 20 0 17 -50 49 -100 65 -52 17
-58 27 -22 40 18 6 32 15 32 20 0 9 -34 30 -47 28 -4 -1 -21 -4 -38 -6z m95
-134 c0 -5 -9 -9 -20 -9 -19 0 -26 11 -14 23 8 8 34 -3 34 -14z"/>
<path d="M1779 3227 c-37 -28 -45 -80 -9 -56 30 18 34 8 7 -16 -19 -18 -27
-36 -27 -59 0 -30 3 -33 31 -33 22 0 35 8 51 31 12 17 32 43 46 58 23 25 24
30 12 58 -11 27 -17 30 -54 30 -22 0 -48 -6 -57 -13z"/>
<path d="M2645 3052 c1 -24 15 -43 25 -37 5 3 12 -7 16 -22 10 -48 12 -49 13
-5 1 29 -5 48 -19 62 -25 25 -37 26 -35 2z"/>
<path d="M2577 2991 c-21 -61 -21 -78 0 -90 10 -5 14 -13 10 -17 -5 -5 -12 -3
-16 4 -5 9 -15 6 -35 -13 -30 -28 -29 -43 1 -29 10 4 36 12 57 18 22 6 44 18
49 27 12 19 1 72 -13 64 -6 -3 -10 1 -10 10 0 10 -5 13 -12 9 -9 -6 -9 -3 0 9
13 15 8 57 -6 57 -4 0 -15 -22 -25 -49z"/>
<path d="M1893 2989 c-13 -5 -23 -16 -23 -25 0 -11 5 -14 16 -10 19 7 84 -3
84 -13 0 -4 -15 -13 -32 -21 -18 -7 -36 -15 -40 -17 -3 -2 -20 10 -37 26 -33
32 -54 40 -45 18 3 -8 -4 -33 -14 -58 -10 -24 -17 -49 -15 -56 2 -6 -1 -14 -6
-18 -16 -9 -13 -97 4 -122 l15 -21 62 31 c35 17 77 34 93 37 24 6 27 9 13 15
-11 4 -35 -1 -61 -14 -54 -26 -57 -26 -57 2 0 48 31 64 128 65 53 1 75 -3 78
-13 3 -8 12 -11 21 -8 11 4 14 1 11 -13 -2 -12 -11 -18 -22 -16 -11 2 -15 -1
-11 -8 4 -6 14 -9 23 -6 10 2 29 7 45 10 24 6 27 11 27 44 0 20 -9 51 -19 69
-11 17 -17 40 -14 51 3 14 -3 25 -21 38 -32 20 -46 11 -23 -14 21 -23 22 -48
2 -56 -8 -3 -15 -12 -15 -21 0 -9 7 -18 15 -21 8 -4 15 -10 15 -14 0 -7 -89
22 -113 37 -5 3 -1 13 8 23 9 10 14 23 11 28 -3 5 6 19 20 31 30 26 26 38 -6
21 -14 -8 -25 -8 -33 -1 -24 19 -62 28 -84 20z"/>
<path d="M2000 2755 c-10 -13 -9 -15 8 -15 15 0 20 5 16 15 -4 8 -7 15 -9 15
-1 0 -8 -7 -15 -15z"/>
<path d="M1737 2666 c-3 -8 -2 -18 3 -21 13 -8 20 9 11 24 -6 10 -10 9 -14 -3z"/>
<path d="M1892 2627 c-6 -7 -7 -18 -3 -25 10 -17 61 2 61 23 0 19 -43 20 -58
2z"/>
<path d="M2665 2378 c13 -43 56 -109 113 -171 62 -68 102 -121 102 -136 0 -12
-71 -104 -124 -159 -53 -57 -190 -164 -243 -191 -51 -25 -54 -26 -46 -5 4 11
-1 22 -12 30 -10 8 -13 14 -7 14 7 0 12 5 12 12 0 6 -10 2 -23 -10 -14 -13
-36 -22 -55 -22 -26 0 -38 8 -62 42 -31 43 -39 83 -17 91 7 3 5 6 -5 6 -10 1
-18 6 -18 12 0 6 -13 28 -30 49 -17 21 -30 43 -30 49 0 5 -10 16 -22 22 -22
12 -22 12 -3 21 16 6 14 7 -7 3 -28 -5 -68 22 -68 45 0 6 -4 10 -8 10 -5 0
-14 11 -20 25 -25 55 -43 9 -23 -59 11 -37 35 -124 51 -186 32 -125 32 -134 5
-343 -30 -235 -39 -283 -72 -396 -17 -58 -21 -87 -14 -94 7 -7 13 -2 20 16 6
16 18 27 29 27 27 0 64 38 60 62 -2 12 -12 26 -23 32 -73 40 -24 65 82 41 38
-8 120 -20 183 -26 63 -6 136 -13 161 -16 l47 -5 4 49 c19 193 68 324 154 411
29 28 51 52 49 52 -2 0 5 21 16 48 20 43 38 119 74 297 29 139 34 171 39 213
l4 43 -31 -6 c-37 -6 -54 5 -86 58 -26 42 -25 42 -44 23 -12 -13 -16 -12 -27
10 -17 31 -36 25 -33 -10 2 -36 -5 -33 -23 9 -16 39 -40 49 -29 13z m115 -58
c0 -5 -2 -10 -4 -10 -3 0 -8 5 -11 10 -3 6 -1 10 4 10 6 0 11 -4 11 -10z
m-404 -625 c21 -21 -5 -21 -32 0 -18 13 -18 14 -1 15 10 0 25 -7 33 -15z
m-266 -565 c0 -5 -5 -10 -11 -10 -5 0 -7 5 -4 10 3 6 8 10 11 10 2 0 4 -4 4
-10z"/>
<path d="M323 2315 c-63 -29 -71 -51 -16 -42 38 7 78 37 72 56 -3 7 -23 2 -56
-14z"/>
<path d="M364 2178 l-29 -31 38 28 c38 28 44 35 29 35 -5 0 -21 -14 -38 -32z"/>
<path d="M931 2154 c12 -15 11 -16 -9 -10 -33 11 -27 -9 15 -43 43 -36 63 -38
87 -12 19 21 15 27 -51 60 -51 25 -60 26 -42 5z"/>
<path d="M470 2110 c0 -13 48 -40 70 -40 45 0 5 39 -46 45 -13 1 -24 -1 -24
-5z"/>
<path d="M1690 2086 c-43 -16 -55 -46 -15 -38 14 2 31 12 38 22 7 10 26 20 42
23 l30 4 -30 1 c-16 0 -46 -5 -65 -12z"/>
<path d="M320 2080 c19 -5 60 -12 92 -15 34 -4 58 -12 62 -20 4 -11 -10 -13
-77 -9 -64 5 -90 2 -117 -10 -34 -16 -33 -17 65 -11 117 7 187 -7 95 -20 -60
-8 -123 -34 -84 -35 11 0 44 7 73 16 29 8 55 13 58 11 2 -3 -16 -19 -41 -36
-87 -60 -64 -60 32 0 27 18 32 19 32 5 0 -25 19 -19 26 8 4 19 12 24 37 22 20
0 39 -10 51 -24 14 -18 21 -20 32 -11 18 15 44 4 44 -19 0 -11 9 -31 20 -45
11 -14 20 -32 20 -40 0 -9 5 -19 10 -22 13 -8 12 2 -5 50 -19 52 -18 64 1 72
12 4 26 -5 45 -28 32 -39 45 -36 24 5 -8 16 -15 30 -15 32 0 8 61 34 81 34 32
0 99 32 99 46 0 7 -5 16 -12 20 -7 4 -8 3 -4 -4 5 -8 -3 -12 -22 -12 -40 0
-163 -38 -184 -57 -18 -17 -31 -12 -106 39 -31 21 -58 30 -95 33 -29 2 -72 11
-96 19 -25 9 -72 16 -110 15 -58 -1 -62 -2 -31 -9z"/>
<path d="M170 2048 c0 -4 7 -8 15 -8 8 0 15 4 15 8 0 5 -7 9 -15 9 -8 0 -15
-4 -15 -9z"/>
<path d="M210 2028 c-12 -22 -12 -22 6 -6 10 10 15 20 12 24 -4 3 -12 -5 -18
-18z"/>
<path d="M1685 2030 c-3 -5 -1 -10 4 -10 6 0 11 5 11 10 0 6 -2 10 -4 10 -3 0
-8 -4 -11 -10z"/>
<path d="M1892 1973 c2 -10 11 -19 21 -21 24 -5 21 15 -4 28 -18 10 -20 9 -17
-7z"/>
<path d="M1672 1917 c-37 -71 -41 -88 -12 -62 18 16 57 112 48 120 -2 2 -18
-24 -36 -58z"/>
<path d="M635 1894 c-28 -31 -30 -49 -11 -119 9 -34 16 -45 20 -34 4 8 2 28
-4 43 -5 15 -8 32 -5 36 9 15 33 100 29 100 -3 0 -16 -12 -29 -26z"/>
<path d="M1776 1903 c-6 -14 -5 -15 5 -6 7 7 10 15 7 18 -3 3 -9 -2 -12 -12z"/>
<path d="M1890 1906 c0 -13 28 -36 44 -36 15 0 4 19 -19 34 -21 14 -25 14 -25
2z"/>
<path d="M801 1834 c0 -11 3 -14 6 -6 3 7 2 16 -1 19 -3 4 -6 -2 -5 -13z"/>
<path d="M1930 1742 c0 -54 -21 -92 -51 -92 -11 0 -17 -4 -14 -10 9 -15 61
-12 74 4 12 14 11 146 -1 146 -5 0 -8 -21 -8 -48z"/>
<path d="M780 1653 c1 -10 7 -29 15 -43 l14 -25 1 27 c0 32 -9 58 -21 58 -5 0
-9 -8 -9 -17z"/>
<path d="M2857 1633 c-15 -14 -6 -33 16 -33 16 0 28 -9 35 -25 13 -29 21 -31
48 -10 10 8 30 15 43 15 13 0 21 3 18 7 -5 4 -136 50 -153 53 0 0 -4 -3 -7 -7z"/>
<path d="M3085 1570 c11 -5 29 -9 40 -9 l20 0 -20 9 c-11 5 -29 9 -40 9 l-20
0 20 -9z"/>
<path d="M740 1557 c0 -9 5 -17 10 -17 6 0 10 -5 10 -11 0 -6 9 -23 19 -38 11
-15 23 -40 27 -55 4 -17 11 -25 20 -22 7 3 18 -3 23 -12 13 -21 14 -8 2 16 -4
9 -16 33 -26 54 -22 47 -85 109 -85 85z"/>
<path d="M1379 1472 c7 -12 18 -22 26 -22 8 0 15 -4 15 -8 0 -11 172 -183 178
-177 6 5 -164 180 -202 207 l-28 21 11 -21z"/>
<path d="M825 1370 c3 -5 16 -10 28 -9 21 0 21 1 2 9 -28 12 -37 12 -30 0z"/>
<path d="M3681 1294 c0 -11 3 -14 6 -6 3 7 2 16 -1 19 -3 4 -6 -2 -5 -13z"/>
<path d="M1620 1243 c0 -5 18 -27 40 -48 22 -22 38 -45 36 -52 -6 -15 10 -18
18 -4 3 5 -17 32 -44 61 -28 29 -50 48 -50 43z"/>
<path d="M1410 1190 c0 -5 7 -10 15 -10 8 0 15 5 15 10 0 6 -7 10 -15 10 -8 0
-15 -4 -15 -10z"/>
<path d="M2195 1148 c-31 -18 -44 -40 -45 -73 0 -39 16 -55 56 -55 24 0 39 8
58 31 32 38 33 73 4 93 -26 19 -46 20 -73 4z m55 -53 c0 -27 -22 -48 -47 -43
-27 5 -28 43 -2 61 27 20 49 12 49 -18z"/>
<path d="M2337 1122 c-21 -23 -21 -40 0 -64 12 -13 13 -22 6 -29 -8 -8 -13 -8
-17 0 -10 16 -36 13 -36 -4 0 -14 29 -35 49 -35 6 0 18 14 26 31 15 27 15 33
1 54 -17 25 -12 37 11 28 11 -4 14 0 11 13 -5 26 -31 29 -51 6z"/>
<path d="M2426 1124 c-22 -22 -20 -61 4 -74 27 -14 15 -32 -16 -24 -30 8 -34
-20 -4 -36 24 -13 54 0 70 30 9 16 6 25 -15 46 -31 31 -32 38 0 32 32 -7 44
11 20 29 -24 17 -40 17 -59 -3z"/>
<path d="M2530 1078 c-10 -24 -22 -56 -26 -71 -5 -24 -4 -28 11 -25 11 2 26
26 41 68 13 36 24 66 24 68 0 1 -7 2 -16 2 -8 0 -23 -19 -34 -42z"/>
<path d="M3541 1014 c0 -11 3 -14 6 -6 3 7 2 16 -1 19 -3 4 -6 -2 -5 -13z"/>
<path d="M1750 995 c-13 -14 -19 -25 -13 -25 6 0 18 11 27 25 9 14 15 25 13
25 -2 0 -14 -11 -27 -25z"/>
<path d="M2572 990 c0 -14 2 -19 5 -12 2 6 2 18 0 25 -3 6 -5 1 -5 -13z"/>
<path d="M1999 946 c-10 -22 -19 -56 -19 -74 0 -24 -5 -35 -18 -39 -11 -2 -49
-59 -93 -136 -107 -190 -153 -257 -269 -392 -57 -66 -107 -122 -110 -125 -15
-13 -70 -90 -94 -132 l-28 -48 685 0 686 0 -10 33 c-12 41 -64 320 -78 417 -6
41 -20 134 -30 205 -11 72 -24 159 -28 195 l-8 65 -120 7 c-66 4 -167 17 -225
28 -58 11 -131 24 -164 29 l-58 8 -19 -41z"/>
<path d="M3484 970 c-54 -8 -207 -51 -201 -56 2 -2 29 2 61 8 46 10 59 10 65
-1 6 -9 10 -7 14 8 4 17 14 21 54 23 26 0 60 0 75 -1 22 -2 26 1 22 13 -7 17
-12 17 -90 6z"/>
<path d="M1860 949 c0 -11 5 -17 10 -14 6 3 10 13 10 21 0 8 -4 14 -10 14 -5
0 -10 -9 -10 -21z"/>
<path d="M3758 878 c-35 -67 -47 -99 -52 -136 -2 -13 -13 -37 -25 -52 -11 -16
-21 -35 -21 -41 0 -7 -7 -20 -15 -29 -9 -10 -18 -28 -20 -41 -3 -13 -14 -35
-25 -49 -11 -14 -25 -36 -31 -50 -14 -33 -23 -210 -9 -190 5 8 10 23 10 32 0
10 16 35 35 57 38 41 132 239 159 331 9 30 20 87 26 126 5 39 12 79 16 88 3 9
1 16 -5 16 -6 0 -25 -28 -43 -62z"/>
<path d="M3040 876 c0 -9 30 -14 35 -6 4 6 -3 10 -14 10 -12 0 -21 -2 -21 -4z"/>
<path d="M3088 853 c6 -2 18 -2 25 0 6 3 1 5 -13 5 -14 0 -19 -2 -12 -5z"/>
<path d="M2700 760 c0 -5 14 -10 30 -10 17 0 30 5 30 10 0 6 -13 10 -30 10
-16 0 -30 -4 -30 -10z"/>
<path d="M3351 724 c0 -11 3 -14 6 -6 3 7 2 16 -1 19 -3 4 -6 -2 -5 -13z"/>
<path d="M3075 620 c3 -5 8 -10 11 -10 2 0 4 5 4 10 0 6 -5 10 -11 10 -5 0 -7
-4 -4 -10z"/>
<path d="M1465 411 c-7 -12 12 -24 25 -16 11 7 4 25 -10 25 -5 0 -11 -4 -15
-9z"/>
<path d="M3618 323 c-52 -54 -78 -115 -78 -189 0 -57 2 -63 37 -97 27 -28 45
-37 70 -37 37 0 40 5 16 32 -23 25 -16 28 42 13 69 -17 145 -26 145 -17 0 4
-15 16 -33 25 -19 10 -46 29 -60 43 -15 14 -27 21 -27 17 0 -4 -5 -2 -12 5 -7
7 -22 12 -34 12 -25 0 -42 18 -27 29 5 3 10 19 11 35 1 16 6 34 11 40 5 6 9
37 9 69 -1 70 -17 75 -70 20z"/>
<path d="M2807 59 c7 -7 21 -7 44 -1 l34 10 -44 1 c-32 1 -42 -2 -34 -10z"/>
</g>
</svg>
